<?xml version="1.0" encoding="UTF-8"?>
<svg id="Layer_2" data-name="Layer 2" xmlns="http://www.w3.org/2000/svg" viewBox="0 0 215.73 215.73">
  <defs>
    <style>
      .cls-1 {
        fill: #ff5301;
      }
    </style>
  </defs>
  <g id="Layer_1-2" data-name="Layer 1">
    <g id="mono">
      <path class="cls-1" d="M107.86,0C48.29,0,0,48.29,0,107.86s48.29,107.86,107.86,107.86,107.86-48.29,107.86-107.86S167.44,0,107.86,0ZM32.58,81.38l53.85-53.85c1.87-1.87,4.89-1.87,6.76,0l2.71,2.71c6.22,6.22,6.22,16.31,0,22.53l-53.85,53.85c-1.87,1.87-4.89,1.87-6.76,0l-2.71-2.71c-6.22-6.22-6.22-16.31,0-22.53ZM140.38,62.36l-93.98,93.98c-2.63,2.63-6.88,2.63-9.51,0-8.76-8.76-8.76-22.96,0-31.71L130.87,30.65c2.63-2.63,6.88-2.63,9.51,0h0c8.76,8.76,8.76,22.96,0,31.71Z"/>
    </g>
  </g>
</svg>