<?xml version="1.0" encoding="UTF-8"?>
<svg id="Layer_2" data-name="Layer 2" xmlns="http://www.w3.org/2000/svg" viewBox="0 0 662.35 170.41">
  <defs>
    <style>
      .cls-1 {
        fill: #ff5301;
      }
    </style>
  </defs>
  <g id="Layer_1-2" data-name="Layer 1">
    <g id="mono">
      <g>
        <path class="cls-1" d="M79.57,170.41c-16.06,0-30.08-3.65-42.07-10.94-11.99-7.29-21.24-17.35-27.74-30.17C3.25,116.48,0,101.78,0,85.21s3.25-31.27,9.76-44.09c6.5-12.82,15.75-22.88,27.74-30.17C49.49,3.65,63.51,0,79.57,0c14.02,0,26.68,2.82,37.96,8.45,11.28,5.64,20.27,13.43,26.98,23.37,6.71,9.95,10.06,21.55,10.06,34.81v2.65h-21.34v-1.99c0-14.59-4.73-25.86-14.18-33.82-9.45-7.96-22.71-11.94-39.78-11.94-20.12,0-34.75,5.58-43.9,16.74-9.15,11.16-13.72,26.8-13.72,46.91s4.57,35.75,13.72,46.91c9.15,11.16,23.78,16.74,43.9,16.74,17.07,0,30.33-3.92,39.78-11.77,9.45-7.84,14.18-19.17,14.18-33.98v-1.99h21.34v2.65c0,13.04-3.35,24.59-10.06,34.65-6.71,10.06-15.7,17.9-26.98,23.54-11.28,5.64-23.93,8.45-37.96,8.45Z"/>
        <path class="cls-1" d="M193.17,167.09h-21.65V3.32h19.51v52.05l2.13,1.66v110.07ZM319.99,167.09h-21.65v-92.17c0-17.02-3.92-30.17-11.74-39.45-7.83-9.28-20.38-13.92-37.65-13.92-18.5,0-32.42,5.75-41.77,17.24-9.35,11.5-14.02,27.85-14.02,49.07h-5.79l-.31-33.15h5.49c1.83-9.28,5.38-18.12,10.67-26.52,5.28-8.4,12.35-15.19,21.19-20.39,8.84-5.19,19.56-7.79,32.16-7.79,14.22,0,26.01,3.26,35.36,9.78,9.35,6.52,16.36,15.2,21.04,26.03,4.67,10.83,7.01,22.77,7.01,35.81v95.48Z"/>
        <path class="cls-1" d="M413.58,167.09h-26.52L315.11,3.32h23.47l60.97,140.57h1.83L462.06,3.32h23.47l-71.95,163.78Z"/>
        <path class="cls-1" d="M517.23,167.09h-25.91l68.59-81.56v-1.66L491.32,3.32h26.22l58.84,67.97h1.52L636.44,3.32h25.91l-68.9,79.9v1.66l68.9,82.22h-26.22l-59.14-69.29h-1.22l-58.53,69.29Z"/>
      </g>
    </g>
  </g>
</svg>